<svg width="79" height="78" viewBox="0 0 79 78" fill="none" xmlns="http://www.w3.org/2000/svg">
<path fill-rule="evenodd" clip-rule="evenodd" d="M10.3809 0C4.64769 0 0 4.64769 0 10.3809V50.581C0 53.9431 1.59835 56.932 4.07666 58.8291C5.91009 61.7668 9.1716 63.7215 12.8896 63.7215H64.8807C70.6139 63.7215 75.2616 59.0738 75.2616 53.3406V13.1405C75.2616 9.77835 73.6633 6.78953 71.185 4.89242C69.3516 1.95465 66.09 0 62.372 0H10.3809ZM71.185 4.89242C69.4372 3.55452 67.2518 2.75958 64.8807 2.75958H12.8896C7.15643 2.75958 2.50873 7.40728 2.50873 13.1405V53.3406C2.50873 55.3558 3.08294 57.2368 4.07666 58.8291C5.82443 60.167 8.00983 60.9619 10.3809 60.9619H62.372C68.1052 60.9619 72.7529 56.3142 72.7529 50.581V10.3809C72.7529 8.36574 72.1787 6.48468 71.185 4.89242Z" fill="#FF7A00"/>
<path d="M10.7455 4.82721C8.33191 5.42412 5.63288 7.91554 4.59478 10.5108L3.99788 11.99L3.92002 34.7502C3.84217 60.0277 3.81622 59.6384 5.52907 62.2856C6.41144 63.687 7.76096 64.9068 9.18834 65.6594C10.9271 66.5418 12.8476 66.6196 31.8187 66.6196H50.5822V72.1993C50.5822 77.4677 50.6082 77.7791 51.0494 77.5455C51.2829 77.3898 53.0217 75.9884 54.8644 74.3793C56.7329 72.7963 59.5358 70.3827 61.1448 69.0591L64.0255 66.6196H66.9841C72.0188 66.6196 74.3286 65.9189 76.4567 63.713C77.0536 63.116 77.884 61.8963 78.2733 61.0399L79 59.4827V35.4769V11.471L78.1436 9.7322C77.2093 7.81173 75.6002 6.20269 73.6798 5.29436L72.5119 4.72341L42.018 4.6715C25.2528 4.6715 11.1867 4.72341 10.7455 4.82721ZM36.6199 19.9055L36.6978 28.4697L41.8882 22.7083C47.7275 16.2203 49.4144 14.3517 51.1013 12.561L52.2691 11.3153L55.3315 11.3931L58.3679 11.471L55.9803 14.196C52.9698 17.6217 41.8882 30.1826 41.0577 31.0909L40.4349 31.7657L44.7689 37.7088C52.7103 48.5828 59.3022 57.6661 59.5098 57.9775C59.6655 58.237 58.9908 58.3149 56.4734 58.3149H53.2553L49.3106 53.0725C47.1306 50.1659 43.3934 45.209 41.0058 42.0428L36.6978 36.2814L36.6199 47.2852L36.568 58.3149H33.9728H31.3775V50.1399V41.9649H27.3549H23.3323V39.2399V36.515H27.3549H31.3775V33.79V31.065H27.3549H23.3323V28.2102V25.3555H27.3549H31.3775V18.3484V11.3412H33.9728H36.568L36.6199 19.9055Z" fill="#001E89"/>
</svg>
